<svg xmlns="http://www.w3.org/2000/svg" width="960" height="720" viewBox="0 0 960 720" fill="none">
  <rect width="960" height="720" rx="48" fill="#ffffff"/>
  <rect x="32" y="32" width="896" height="656" rx="40" stroke="#e5e7eb" stroke-width="2"/>

  <rect x="96" y="120" width="768" height="480" rx="36" fill="#f8fafc"/>

  <!-- Kohlu stone + bottle -->
  <circle cx="360" cy="444" r="110" fill="#e2e8f0" stroke="#cbd5e1" stroke-width="2"/>
  <circle cx="360" cy="444" r="52" fill="#f1f5f9" stroke="#cbd5e1" stroke-width="2"/>
  <path d="M284 378c34-44 116-56 152-16" stroke="#94a3b8" stroke-width="10" stroke-linecap="round"/>

  <rect x="500" y="190" width="64" height="70" rx="14" fill="#0f172a" opacity="0.07"/>
  <rect x="460" y="250" width="144" height="336" rx="52" fill="#ecfdf5" stroke="#a7f3d0" stroke-width="2"/>
  <rect x="478" y="318" width="108" height="120" rx="22" fill="#fff7ed" stroke="#fed7aa" stroke-width="2"/>

  <path d="M532 458c26 38 42 60 42 80 0 23-19 42-42 42s-42-19-42-42c0-20 16-42 42-80z" fill="#f59e0b" opacity="0.9"/>

  <text x="532" y="362" text-anchor="middle" font-family="ui-sans-serif, system-ui" font-size="20" font-weight="800" fill="#065f46">Kohlu Oil</text>
  <text x="532" y="388" text-anchor="middle" font-family="ui-sans-serif, system-ui" font-size="14" font-weight="700" fill="#0f766e">Cold Press</text>
  <text x="532" y="412" text-anchor="middle" font-family="ui-sans-serif, system-ui" font-size="14" font-weight="600" fill="#047857">gmherbal</text>

  <text x="480" y="650" text-anchor="middle" font-family="ui-sans-serif, system-ui" font-size="18" font-weight="700" fill="#0f172a" opacity="0.75">Traditional Extraction</text>
</svg>
