<svg xmlns="http://www.w3.org/2000/svg" width="960" height="720" viewBox="0 0 960 720" fill="none">
  <rect width="960" height="720" rx="48" fill="#ffffff"/>
  <rect x="32" y="32" width="896" height="656" rx="40" stroke="#e5e7eb" stroke-width="2"/>

  <rect x="96" y="120" width="768" height="480" rx="36" fill="#f8fafc"/>

  <!-- Bottle -->
  <rect x="444" y="158" width="72" height="78" rx="16" fill="#0f172a" opacity="0.07"/>
  <rect x="396" y="224" width="168" height="362" rx="56" fill="#eff6ff" stroke="#bfdbfe" stroke-width="2"/>
  <rect x="418" y="304" width="124" height="112" rx="22" fill="#ecfdf5" stroke="#a7f3d0" stroke-width="2"/>

  <!-- Droplet -->
  <path d="M480 438c30 46 50 72 50 96 0 28-22 50-50 50s-50-22-50-50c0-24 20-50 50-96z" fill="#f59e0b" opacity="0.85"/>

  <!-- Label text -->
  <text x="480" y="356" text-anchor="middle" font-family="ui-sans-serif, system-ui" font-size="28" font-weight="800" fill="#065f46">Seed Oil</text>
  <text x="480" y="385" text-anchor="middle" font-family="ui-sans-serif, system-ui" font-size="14" font-weight="700" fill="#0ea5e9">Refined</text>
  <text x="480" y="410" text-anchor="middle" font-family="ui-sans-serif, system-ui" font-size="14" font-weight="600" fill="#047857">gmherbal</text>

  <text x="480" y="650" text-anchor="middle" font-family="ui-sans-serif, system-ui" font-size="18" font-weight="700" fill="#0f172a" opacity="0.75">Everyday Cooking</text>
</svg>
